<?xml version="1.0" encoding="UTF-8"?>
<svg id="Layer_2" data-name="Layer 2" xmlns="http://www.w3.org/2000/svg" viewBox="0 0 2690.97 4159.17">
  <defs>
    <style>
      .cls-1 {
        fill: #fff;
        stroke-width: 0px;
      }
    </style>
  </defs>
  <g id="Layer_1-2" data-name="Layer 1">
    <g>
      <path class="cls-1" d="m300.92,3042.84c38.28.66,70.96,30.57,70.91,71.82-.05,37.21-28.29,71.14-71.34,71.23-44.06.1-72.1-35.51-71.75-72.36.37-39.1,33.05-70.98,72.18-70.69Z"/>
      <path class="cls-1" d="m2409.77,896.54c-.99,39.57-31.86,70.89-71.98,70.78-39.17-.11-71.18-31.4-71.12-71.55.06-39.85,31.62-72.23,72.6-71.46,42.6.8,70.59,35.18,70.5,72.23Z"/>
      <path class="cls-1" d="m406.72,938.87c-.51,36.68-28.32,71.01-71.58,71.12-40.53.1-71.44-31.69-71.49-71.14-.05-44.81,36.62-72.34,72.2-71.93,39.13.44,71.04,32.7,70.87,71.95Z"/>
      <path class="cls-1" d="m878.98,127.6c-.39-34.38,26.04-71.01,70.83-71.81,36.98-.66,72.1,27.75,72.05,71.93-.04,43.04-35.11,71.46-71.42,71.05-41.62-.48-71.34-33.51-71.47-71.17Z"/>
      <path class="cls-1" d="m2426.71,2818.03c-41.76-.84-71.08-34.16-71.24-71.58-.15-35.43,27.34-71.09,71.14-71.51,39.95-.38,72.41,31.18,71.88,72.12-.55,42.6-34.65,70.78-71.77,70.97Z"/>
      <path class="cls-1" d="m2147.93,3871.05c-1.85,43.3-37.5,71.27-74.49,69.6-37.36-1.68-69.24-31.48-68.54-72.55.68-39.69,32.17-71.11,72.27-70.39,45.62.81,71.68,38.1,70.76,73.34Z"/>
      <path class="cls-1" d="m1370.88,4159.17c-39.24.02-71.46-31.95-71.58-71.16-.12-37.77,29.52-72.24,72.24-71.87,40.43.35,71.08,32.41,70.79,71.81-.32,42.87-34.91,71.13-71.44,71.22Z"/>
      <path class="cls-1" d="m2355.48,2573.33c.02-39.24,32.01-71.43,71.21-71.53,37.44-.1,72.17,29.22,71.79,72.32-.36,40.4-32.26,71.08-71.86,70.7-44.22-.43-71.31-36.31-71.14-71.49Z"/>
      <path class="cls-1" d="m1502.87,150.18c-37.27-.39-70.9-30.07-70.84-71.84.06-37.75,29.33-71.16,71.43-71.14,44.09.02,72.03,35.8,71.63,72.45-.43,39.09-33.01,70.83-72.23,70.53Z"/>
      <path class="cls-1" d="m1370.6,3966.59c-39.28-.11-71.28-32.13-71.32-71.37-.04-35.08,26.56-71.15,71.1-71.55,42.24-.39,72.48,33.24,71.94,72.05-.62,44.49-36.98,71.3-71.72,70.88Z"/>
      <path class="cls-1" d="m2356.28,3149.39c39.17.29,71.03,32.51,70.97,71.74-.06,37.03-29.07,71.71-72.73,71.28-39.6-.39-70.89-32.24-70.14-72.31.85-45.57,37.85-70.95,71.9-70.7Z"/>
      <path class="cls-1" d="m1857.55,424.2c-.32-39.27,31.33-71.8,70.48-72.24,37.01-.41,72.27,27.69,72.45,71.61.17,40.07-30.95,71.18-71.1,71.39-41.63.22-71.47-33.14-71.83-70.76Z"/>
      <path class="cls-1" d="m1529.37,3954.9c-38.64-.23-71.03-30.06-71.84-70.87-.68-34.2,25.27-71.3,70.39-72.14,39.58-.74,72.63,30.02,72.57,71.43-.06,41.26-32.51,70.81-71.12,71.59Z"/>
      <path class="cls-1" d="m29.85,1048.12c-.25-36.18,28.34-71.22,71.19-71.38,40.07-.15,72.27,31.25,71.77,72.3-.53,43.83-35.98,71.21-71.93,70.63-45.6-.73-71.68-38.13-71.03-71.56Z"/>
      <path class="cls-1" d="m2496.09,2912.28c.14,35.45-26.59,71.27-70.81,71.82-42.97.54-72.64-33.72-72.25-71.73.46-44.08,36.65-71.42,71.44-71.2,39.32.24,71.43,31.88,71.62,71.11Z"/>
      <path class="cls-1" d="m2619.53,2818.03c-43.63-.73-71.26-36.17-71.55-71.27-.29-34.3,26.69-72.05,72.27-71.82,38.77.19,71.09,30.85,70.71,71.82-.4,43.4-35.13,70.99-71.43,71.26Z"/>
      <path class="cls-1" d="m1123.69,3861.48c-.24,39.34-32.2,70.6-71.75,70.77-33.41.14-70.76-25.42-71.06-71.45-.26-40.02,30.87-71.42,71-71.47,46.15-.05,72.93,38.29,71.81,72.14Z"/>
      <path class="cls-1" d="m337.97,1247.27c.41,35.51-28.01,70.61-71.5,71.06-36.5.38-71.21-28.21-71.39-71.18-.18-43.07,34.47-72.55,72.25-71.79,46.86.94,71.66,39.79,70.64,71.9Z"/>
      <path class="cls-1" d="m1486.1,4072.68c-.28-31.52,24.74-70.5,72.17-70.4,39.27.08,71.09,30.73,70.75,71.74-.4,46.7-39.06,71.96-72.86,71.17-39.25-.92-70.49-32.93-70.05-72.51Z"/>
      <path class="cls-1" d="m2038.88,3710.93c.35,36.3-28.91,70.95-71.49,70.97-39.53.02-71.3-30.95-71.35-71.2-.06-42.7,34.19-72.46,72.28-71.72,45.94.89,71.54,38.95,70.56,71.95Z"/>
      <path class="cls-1" d="m2619.27,1433.95c-39.4-.11-70.76-31.91-71.24-71.32-.39-32.46,24.76-71.01,71.06-71.52,40.25-.45,72.41,31.29,71.87,72.05-.61,46.29-39.06,71.66-71.69,70.79Z"/>
      <path class="cls-1" d="m2548.14,2400.41c.01-39.43,31.7-71,70.97-71.61,33.33-.52,72,25.68,71.85,72.21-.13,40.12-31.8,71.09-71.72,70.72-46.66-.43-72.04-39.12-71.1-71.32Z"/>
      <path class="cls-1" d="m2427.02,1433.95c-39.4,0-71.32-31.78-71.56-71.05-.22-36.12,28.08-72.16,72.27-71.8,40.71.33,71.17,32.62,70.75,71.78-.49,45.98-38.39,71.74-71.46,71.07Z"/>
      <path class="cls-1" d="m754.95,3986.34c-.9-38.27,31.17-71.19,70.68-71.82,34-.55,72.08,25.81,72.14,71.88.05,40.14-31.65,71.09-71.48,70.98-46.61-.13-72.2-39.02-71.34-71.04Z"/>
      <path class="cls-1" d="m1842.97,3961.91c.54-39.22,32.89-70.47,72.38-70.2,33.32.22,70.75,26.18,70.44,72.15-.29,41.85-33.36,71.39-71.68,70.88-48.2-.65-72.61-40.72-71.14-72.83Z"/>
      <path class="cls-1" d="m1162.34,204.54c37.61-.41,70.74,31.25,70.92,71.57.14,32.16-24.65,70.64-71.39,71.2-39.44.47-72.25-31.14-71.52-72.38.8-45.48,38.71-71.73,71.99-70.39Z"/>
      <path class="cls-1" d="m2181.44,299.62c31.91-1.36,71.12,24.23,71.82,70.59.61,40-30.94,72.16-71.72,72.22-39.49.06-70.66-31.87-71.08-71.42-.41-38.56,31.95-71.78,70.98-71.39Z"/>
      <path class="cls-1" d="m402.56,867.04c-39.28-.31-70.43-32.4-70.71-71.88-.22-30.8,23.78-70.8,71.67-70.93,41.09-.12,72.11,32.51,71.26,72.67-1.03,48.37-41.64,71.55-72.22,70.15Z"/>
      <path class="cls-1" d="m599.2,619.52c-39.22-.18-71.16-32.33-71.08-71.52.08-39.19,32.06-71.49,71.36-71.33,42.36.18,72.36,34.08,71.71,72.32-.73,43.08-36.7,71.6-71.99,70.53Z"/>
      <path class="cls-1" d="m2240.52,629.15c.48,39.34-33.08,71.1-71.26,71.25-32.8.13-71.07-25.3-71.42-71.08-.31-41.19,32.31-72.42,71.98-71.89,46.66.63,71.97,40.1,70.71,71.72Z"/>
      <path class="cls-1" d="m2355.49,2399.78c.71-41.9,35.35-71.06,71.74-71.02,33.94.03,71.77,26.85,71.24,72.89-.46,39.6-31.97,70.79-72.38,70.09-45.08-.78-71.19-37.72-70.6-71.95Z"/>
      <path class="cls-1" d="m155.36,797.51c33.07-1.13,70.72,25.05,71.79,70.72.93,39.66-32.05,72.51-71.87,72.17-39.54-.34-70.76-32.05-71.06-71.56-.28-37.96,31.43-71.72,71.14-71.33Z"/>
      <path class="cls-1" d="m1688.31,40.84c39.26.16,71.13,32.22,71.21,71.46.07,34.27-26.12,71.06-71.28,71.32-42.92.25-72.58-33.88-71.81-72.13.96-47.4,40.11-71.56,71.87-70.65Z"/>
      <path class="cls-1" d="m1811.63,4031.92c1.03,30.97-22.88,70.77-70.96,71.5-39.77.6-72.38-30.71-71.83-72.07.64-47.83,40.67-71.16,71.67-70.92,38.31.3,71.7,32.37,71.12,71.48Z"/>
      <path class="cls-1" d="m353.85,3192.31c39.22.35,70.38,32.42,70.57,71.88.16,33.46-26.44,70.63-71.58,70.89-39.28.23-71.75-32.1-71.32-71.22.53-48.08,40.5-72.8,72.33-71.56Z"/>
      <path class="cls-1" d="m2102.34,260.26c0,39.52-31.57,71.04-71,71.47-35.46.39-72.07-27.25-71.71-72.17.32-39.53,31.12-71.17,71.71-70.77,46,.46,71.85,38.52,71,71.47Z"/>
      <path class="cls-1" d="m2548.14,2572.77c.24-39.3,32.3-71.12,71.63-70.97,35.88.14,71.03,27.84,71.19,71.44.16,41.88-33.28,72.39-72.38,71.57-46.59-.97-71.59-39.68-70.45-72.04Z"/>
      <path class="cls-1" d="m420.91,664.64c-.78-39.05,32.88-71.38,70.9-71.69,34.92-.29,72.12,28.01,71.94,72.2-.16,39.22-32.72,71.38-71.72,70.93-44.53-.52-72.14-38.04-71.11-71.43Z"/>
      <path class="cls-1" d="m2400.16,3140.83c-34.61-.19-70.45-28.19-69.9-72.6.5-40.01,32.73-70.65,72.35-70.18,40.19.48,71.79,33.41,70.61,73.39-1.25,42.26-36.94,70.81-73.07,69.39Z"/>
      <path class="cls-1" d="m412.85,545c.83,35.24-28.18,70.94-71.08,71.46-34.77.43-72.03-26.76-71.69-72.31.3-40.31,32.1-71.15,71.83-70.71,45.47.5,71.86,38.1,70.94,71.56Z"/>
      <path class="cls-1" d="m335.28,2104.77c.93,38.1-30.93,71.29-70.62,71.86-34.79.5-72.21-27.1-72.1-71.9.09-38.85,30.76-71.25,71.43-71.05,46.3.23,72.18,38.67,71.29,71.09Z"/>
      <path class="cls-1" d="m1074.84,4047.36c.26,36.5-28.55,71.17-71.29,71.16-40.12,0-70.92-31.15-71.51-71.13-.58-39.66,32.44-72.58,72.2-71.94,43.52.7,71.66,37.07,70.6,71.92Z"/>
      <path class="cls-1" d="m2427.26,2156.1c31.78-1,70.81,24.24,71.22,71.23.34,39.36-30.55,71.32-70.99,71.51-44.09.2-72.52-35.84-71.99-72.01.62-42.24,35.8-71.7,71.77-70.73Z"/>
      <path class="cls-1" d="m2618.93,1606.87c-37.22.6-71.15-31.07-70.84-71.52.3-39.4,31.92-71.26,71.32-71.2,39.92.06,72.3,31.59,71.54,72.41-.87,46.79-40.11,71.78-72.02,70.32Z"/>
      <path class="cls-1" d="m2427.45,1606.87c-35.54,1.23-71.36-27.96-71.92-70.48-.53-39.94,31.95-72.57,71.77-72.25,39.6.32,71.35,31.37,71.18,71.38-.2,46.65-38.99,72.38-71.03,71.35Z"/>
      <path class="cls-1" d="m847.61,195.1c1.11,35.5-26.82,72.36-71.46,72.48-40.26.11-71.03-31.98-71.36-71.27-.33-39.18,31.82-71.67,70.93-71.74,41.8-.08,72.23,33.78,71.88,70.53Z"/>
      <path class="cls-1" d="m165.07,700.17c-.64-34.55,26.47-71.04,70.71-71.8,36.45-.62,72.21,27.58,72,71.89-.2,42.44-33.81,71.22-71.43,70.98-45.65-.28-71.81-37.63-71.29-71.07Z"/>
      <path class="cls-1" d="m2585.8,817.72c1.01,35.82-27.89,71.28-70.43,72.12-35.84.71-72.36-27.06-72.34-71.69.01-40.61,31.63-71.49,71.2-71.34,47.3.18,72.35,39.25,71.57,70.9Z"/>
      <path class="cls-1" d="m723.36,377.51c33.26-.63,70.92,25.3,71.46,71.09.45,38.6-29.73,71.5-70.84,71.66-44.01.17-72.65-34.86-72.15-71.8.58-42.49,35.19-71.63,71.54-70.95Z"/>
      <path class="cls-1" d="m176.15,3269.86c34.38-1.1,71.16,26.19,72.06,70.43.74,36.46-27.44,72.31-71.66,72.36-41.68.05-71.53-33.54-71.34-71.24.22-44.51,36.73-72.17,70.94-71.55Z"/>
      <path class="cls-1" d="m634.14,3713.55c-32.2.85-70.7-24.69-71.05-71.36-.29-38.47,29.79-71.19,71.09-71.42,42.22-.24,72.46,34.03,71.8,72.15-.79,45.3-38.7,71.71-71.84,70.63Z"/>
      <path class="cls-1" d="m2620.08,2156.1c31.56-.91,70.75,24.38,70.87,71.52.11,40.36-31.71,71.26-71.25,71.21-45.73-.05-72.31-38.22-71.7-72.31.71-39.66,33.99-71.44,72.08-70.42Z"/>
      <path class="cls-1" d="m335.28,1932.66c.59,35.41-28.67,70.8-71.56,70.91-39.23.11-71.28-32.08-71.2-71.4.08-40.26,31.95-72.35,72.4-71.58,45.81.87,71.6,39.04,70.36,72.07Z"/>
      <path class="cls-1" d="m2617.14,2997.14c-39.34,1.2-71.59-32.19-72.17-70.24-.54-35.67,28.15-72.33,71.62-72.41,37.33-.06,71.27,29.22,71.32,71.13.06,46.15-38.38,72.5-70.77,71.52Z"/>
      <path class="cls-1" d="m270.59,2887.39c39.19-.15,71.32,31.46,71.58,71,.26,38.55-29.37,72.34-71.94,71.94-45.37-.42-71.02-37.94-70.98-71.6.05-33.94,26.77-70.54,71.34-71.35Z"/>
      <path class="cls-1" d="m427.98,3474.75c-34.29,1.17-71.23-25.72-71.94-70.45-.66-41.57,32.51-72.36,71.67-72.36,39.42,0,71.26,32.04,71.22,71.36-.04,42.01-34.77,72.12-70.95,71.44Z"/>
      <path class="cls-1" d="m193.59,3507.19c-1.1-35.06,26.52-72.34,71.66-72.2,41.94.13,71.01,33.84,71.07,71.51.07,39.32-31.91,71.42-71.1,71.51-39.52.09-71.4-31.43-71.63-70.82Z"/>
      <path class="cls-1" d="m2349.05,3543.29c32-1.25,70.92,23.63,71.71,70.64.67,40.01-31.13,72.11-71.91,72.02-39.42-.09-71.2-32.18-71.07-71.49.13-40.94,34-71.77,71.27-71.16Z"/>
      <path class="cls-1" d="m335.28,1413.29c1.03,32.45-24.58,70.98-70.99,71.4-41.27.37-72.1-32.57-71.76-72.19.34-39.47,32.41-70.84,71.83-70.72,40.53.12,71.71,34.15,70.93,71.51Z"/>
      <path class="cls-1" d="m2462.12,1044.82c1.14,31.73-23.57,70.88-70.75,71.62-38.72.61-71.11-29.29-72.03-70.46-.88-39.59,31.78-72.5,71.58-72.48,39.21.02,71.02,31.88,71.2,71.32Z"/>
      <path class="cls-1" d="m335.29,1586.36c.89,32.83-25.16,70.89-71.21,71.21-40.26.28-71.15-31.57-71.57-70.97-.42-39.8,32.15-72.41,72.06-71.98,42.01.45,71.66,35.56,70.72,71.75Z"/>
      <path class="cls-1" d="m2427.4,2125.73c-39.42.23-71.61-31.34-71.91-70.6-.31-41.36,33.76-71.66,70.41-72.22,35.1-.54,72.42,26.59,72.57,71.45.15,41.49-33.34,71.45-71.08,71.37Z"/>
      <path class="cls-1" d="m660.78,3827.9c34.99-.86,70.99,28.21,71.19,71.29.18,39.23-31.83,71.07-71.24,71.38-39.03.31-72.29-30.88-71.84-72.13.46-42.3,35.65-71.62,71.89-70.54Z"/>
      <path class="cls-1" d="m2349.02,1201.21c-1.27-34.67,26.48-71.22,70.31-72.13,39.87-.82,72.24,31.65,72.41,71.63.15,37.2-29.6,71.5-71.17,71.33-44.57-.18-72.29-36.44-71.55-70.83Z"/>
      <path class="cls-1" d="m150.86,2980.72c.45,39.23-32.91,71.13-71.2,71.32-32.78.16-71.12-25.1-71.62-70.93-.45-41.86,33.35-72.33,71.94-71.95,39.55.39,70.91,32.04,70.87,71.56Z"/>
      <path class="cls-1" d="m901.76,3880.52c-30.19.98-70.64-23.03-70.67-71.66-.02-41.23,32.8-70.88,71.48-70.98,39.99-.11,71.75,32.31,71.39,72.54-.37,40.56-34.73,71.16-72.2,70.1Z"/>
      <path class="cls-1" d="m2619.65,1779.7c-38.16.99-71.57-31.31-71.56-70.76.01-40.12,32-72.07,72.05-71.88,37.15.18,71.09,29.5,70.81,71.65-.3,46.33-39.01,72.22-71.31,70.99Z"/>
      <path class="cls-1" d="m2355.02,652.35c-.31-39.16,33.05-70.88,71.6-70.83,35.35.04,70.88,28.45,71.16,71.42.25,39.31-31.69,71.6-71.02,71.47-45.72-.15-73.02-37.93-71.75-72.06Z"/>
      <path class="cls-1" d="m335.28,1758.69c1.14,34.74-26.66,71.1-70.48,71.99-39.79.81-72.61-31.95-72.29-71.75.33-40.46,32.4-71.41,71.33-71.25,45.13.18,72.17,37.47,71.44,71.01Z"/>
      <path class="cls-1" d="m335.27,2451.66c.42,39.05-33.31,70.91-71.57,70.86-33.44-.04-70.92-26.86-71.17-71.38-.22-39.91,32.52-71.93,72.42-71.46,41.8.48,71.53,35.95,70.32,71.99Z"/>
      <path class="cls-1" d="m2128.16,517.74c.48,36.57-30.12,70.85-71.48,70.93-35.31.06-71.1-27.37-71.27-71.16-.18-44.75,37.03-72.14,72.22-71.68,38.65.51,71.44,32.96,70.54,71.91Z"/>
      <path class="cls-1" d="m2619.44,1983.11c33.03-1.18,71.06,25.13,71.52,70.81.43,42.28-33.94,72.32-72.04,71.83-39.59-.51-70.72-32.07-70.83-71.63-.11-38.81,32.48-71.75,71.35-71.01Z"/>
      <path class="cls-1" d="m2660.94,3111.06c1.18,34.2-26.09,71.83-72.07,71.67-42.51-.15-70.38-35.23-70.54-70.38-.18-40.13,31.5-72.49,71.44-72.5,40.52,0,71.87,33.96,71.17,71.21Z"/>
      <path class="cls-1" d="m2611.65,1250.19c-33.93,1.12-71.06-26.29-71.45-70.87-.35-40.79,33.09-72.16,72.19-71.77,39.49.4,71.13,33.08,70.8,71.8-.37,42.48-36.03,71.91-71.54,70.85Z"/>
      <path class="cls-1" d="m2426.49,1779.71c-36.26.75-71-29.65-70.98-71.41.01-39.34,31.87-71.02,71.32-71.23,39.08-.21,72.34,31.01,71.65,72.28-.76,45.46-38.66,71.72-71.99,70.36Z"/>
      <path class="cls-1" d="m936.13,311.83c-1.07-35.82,27.48-71.17,70.32-72.09,39.77-.85,72.51,31.71,72.42,71.61-.09,38.54-30.13,71.38-71.17,71.27-45.19-.13-72.03-36.74-71.58-70.79Z"/>
      <path class="cls-1" d="m263.51,2725.68c39.44-1.02,71.48,32.49,71.95,70.48.45,36.55-29.21,72.42-71.79,72.15-39.57-.25-71.3-31.82-71.14-71.27.18-44.43,37.17-72.3,70.98-71.35Z"/>
      <path class="cls-1" d="m539.72,406.7c1.08,40.32-33.44,71.66-70.23,72.24-36.49.57-72.5-29.23-72.43-71.56.07-39.53,31.43-71.16,71.03-71.3,43.26-.16,72.33,35.7,71.63,70.62Z"/>
      <path class="cls-1" d="m1830.6,3718.72c34.87-.96,71.09,27.73,71.28,71.04.18,39.45-31.33,71.59-70.81,71.7-45.3.13-72.43-37.48-72.1-71.87.38-39.28,33.39-71.68,71.62-70.87Z"/>
      <path class="cls-1" d="m1483.82,198.7c35.03-.74,70.93,28.11,70.96,71.5.03,39.7-31.83,71.17-71.32,71.28-39.96.1-72.5-32.53-71.73-72.37.83-43.17,36.87-71.66,72.09-70.41Z"/>
      <path class="cls-1" d="m1638.44,227.24c39.79-.78,71.81,31.73,72.13,70.23.36,42.62-34.98,72.61-71.57,72.43-35.21-.17-71.16-27.24-71.3-71.17-.14-45.91,37.74-72.31,70.73-71.5Z"/>
      <path class="cls-1" d="m1788.51,421.33c-30.42,1.09-70.79-22.61-71.08-71.2-.24-41.53,32.89-71.32,70.97-71.46,39.94-.15,72.23,32.12,71.89,72.07-.33,39.3-33.04,71.54-71.78,70.59Z"/>
      <path class="cls-1" d="m2314.77,431.5c34.73-.78,71.17,26.71,71.32,71.06.16,45.47-37.55,72.09-72.28,71.66-39.61-.49-71.04-33.64-70.69-71.9.37-40.89,34.68-71.8,71.65-70.81Z"/>
      <path class="cls-1" d="m1279.4,3888.63c1.13,37-28.87,71.32-70.29,72.07-39.91.72-72.42-31.68-72.33-71.56.09-37.89,29.36-71.41,71.1-71.32,47.85.11,72.35,39.69,71.52,70.81Z"/>
      <path class="cls-1" d="m2525.69,3460.24c.86,31.98-24.44,70.87-71.48,70.85-44.08-.03-71.28-35.56-71.15-71.23.15-40.11,32.24-72.19,72.26-71.71,39.86.48,71.36,33.86,70.36,72.09Z"/>
      <path class="cls-1" d="m288.88,1161.23c-35.36.66-71.23-27.59-71.14-71.22.09-45.31,37.43-71.48,71.08-71.44,40.58.04,72.42,33.17,71.93,72.13-.51,41.08-34.57,71.53-71.88,70.53Z"/>
      <path class="cls-1" d="m2427.15,1952.74c-38.1.86-71.39-30.66-71.65-70.75-.26-40.6,33.42-72.18,72.11-71.94,34.26.21,70.94,27.16,70.87,71.68-.08,43.59-36.08,71.86-71.32,71.01Z"/>
      <path class="cls-1" d="m931.54,369.04c.84,36.93-29.21,71.42-70.73,71.65-42.9.24-72.32-35.18-72.07-71.94.24-34.36,26.84-70.89,71.66-70.86,44.95.03,72.03,37.07,71.13,71.15Z"/>
      <path class="cls-1" d="m614.82,218.94c37.79-.58,71.09,31.22,71.1,71.36.02,39.1-32.11,71.29-71.31,71.37-38.63.08-72.37-30.15-71.64-72.23.82-46.74,39.69-71.8,71.84-70.5Z"/>
      <path class="cls-1" d="m1249.42,71.18C1248.85,30.39,1284.53.02,1320.66,0c36.31-.02,71.89,30.79,71.44,72.61-.37,34.88-28.95,70.65-72.15,70.27-41.94-.37-71.68-35.48-70.53-71.7Z"/>
      <path class="cls-1" d="m2576.64,1066.21c-37.12.84-71.86-29.87-71.45-72.35.38-39.17,33.2-70.57,72.22-70.27,32.45.25,70.8,25.33,70.68,71.8-.11,44.48-37.07,71.75-71.45,70.82Z"/>
      <path class="cls-1" d="m438.2,3788.47c-1.04-32.75,24.76-71.03,70.9-71.45,41.68-.38,72.2,33.44,71.75,72.19-.46,39.38-32.49,71.09-71.78,70.77-41.86-.34-71.74-35.11-70.87-71.51Z"/>
      <path class="cls-1" d="m2620.18,1952.74c-40.43,1.01-71.7-32.93-72.17-70.23-.5-39.04,31.87-72.43,71.61-72.46,34-.03,71.13,26.47,71.34,71.18.21,44.27-36.23,72.18-70.78,71.51Z"/>
      <path class="cls-1" d="m2090.42,3540.06c38.67-1.12,71.75,30.84,72.13,70.22.39,40.2-31.34,72.18-71.51,72.39-36.17.19-71.22-27.63-71.37-71.06-.16-45.91,37.69-72.33,70.75-71.55Z"/>
      <path class="cls-1" d="m2269.81,3494.67c1,36.54-28.73,71.18-70.67,71.7-39.56.49-72.16-32.22-72.04-71.99.1-32,24.75-70.97,71.62-70.91,45.01.05,72.02,37.17,71.09,71.2Z"/>
      <path class="cls-1" d="m2463.87,3290.61c-.73-34.63,26.41-71.23,71.01-71.37,46.39-.15,71.54,38.23,71.74,70.81.24,38.99-31.63,72.56-71.86,72.17-40.24-.39-71.52-33.4-70.89-71.6Z"/>
      <path class="cls-1" d="m185.77,3164.28c.93,39.02-32.17,71.32-70.65,71.71-34.78.35-71.47-27.31-71.95-70.49-.44-40,31.62-72.82,71.44-72.41,43.69.45,71.9,36.19,71.16,71.19Z"/>
      <path class="cls-1" d="m1133.51,14.24c38.62-.56,70.99,32.15,71.09,71.32.09,35.48-28.82,71.95-72.6,71.33-39.37-.56-70.75-32.57-70.27-72.12.51-42.17,35.69-71.67,71.79-70.54Z"/>
      <path class="cls-1" d="m2221.83,3823.29c-39.07.44-71.04-32.64-70.96-71.44.07-38.16,31.8-71.74,72.82-71.17,35.61.5,70.8,28.98,70.14,72.31-.71,46.56-39.8,71.75-72,70.3Z"/>
      <path class="cls-1" d="m833.5,3736.42c1.1,30.46-23.13,70.87-71.51,70.77-45.24-.1-71.71-37.44-71.12-72.75.64-38.04,32.69-70.61,72.38-70.21,36.96.37,71.32,31.64,70.25,72.19Z"/>
      <path class="cls-1" d="m1612.02,3847.63c-.56-38.38,32.34-71.22,71.41-71.15,37.59.06,71.82,31.46,71.34,72.8-.37,31.72-24.9,70.58-72.29,70.23-44.06-.33-71.6-36.91-70.45-71.88Z"/>
      <path class="cls-1" d="m1187.44,4009.37c38.77-1.1,71.35,31.88,71.86,70.47.48,36.28-28.76,72.37-71.66,72.19-39.49-.16-71.02-31.82-71.05-71.28-.02-43.34,36.35-72.28,70.85-71.38Z"/>
      <path class="cls-1" d="m2287.73,3292.52c37.68-.8,71.03,31.54,71.21,71.22.16,36.25-29.29,71.94-72.45,71.38-39.56-.51-70.56-32.29-70.36-71.92.21-40.2,33.81-71.63,71.61-70.68Z"/>
      <path class="cls-1" d="m142.69,1413.72c.96,32.87-25.43,70.95-71.35,70.95-44.67,0-71.87-37.21-71.33-72.6.57-37.47,32.12-70.81,72.25-70.33,39.82.48,71.51,33.95,70.43,71.98Z"/>
      <path class="cls-1" d="m335.28,2278.3c.55,38.86-32.54,71-71.19,71.21-34.46.19-71.93-27.5-71.53-72.38.35-39.43,32.71-70.91,71.99-70.39,43.7.58,71.83,37.14,70.74,71.57Z"/>
      <path class="cls-1" d="m335.27,2624.07c.87,36.23-29.42,71.14-70.97,71.41-38.04.25-72.14-30.34-71.75-72.14.4-42.92,36.48-70.93,71.75-70.72,38.92.23,71.83,33.05,70.96,71.45Z"/>
      <path class="cls-1" d="m142.69,1586.29c1.05,33.21-25.46,71.02-70.98,71.27-44.3.24-71.96-36.75-71.55-72.31.42-36.6,30.63-71,71.87-70.62,41.4.38,71.65,35.02,70.65,71.67Z"/>
      <path class="cls-1" d="m522.02,3601.83c-35.01.81-71.24-27.24-71.4-70.93-.15-43.28,35.65-72.16,72.2-71.77,37.9.4,71.11,31.62,70.74,71.85-.4,42.44-35.53,71.81-71.53,70.86Z"/>
      <path class="cls-1" d="m1793.74,173.49c-1.02-33.22,24.94-70.98,70.73-71.6,39.97-.54,72.28,31.3,72.01,71.9-.27,40.21-32.51,71.21-71.55,70.95-43.82-.29-71.84-36.42-71.19-71.26Z"/>
      <path class="cls-1" d="m2263.62,827.26c-34.9.88-71.2-26.84-71.31-71.01-.11-45.6,37.59-71.57,70.87-71.69,40.75-.15,72.42,33.48,72.09,71.98-.34,40.42-34.13,71.75-71.65,70.72Z"/>
      <path class="cls-1" d="m.39,1759.53c-1.24-35.06,27.03-71.45,70.41-71.83,44.25-.38,72.28,36.45,72.12,71.83-.16,35.07-28.17,71.03-71.4,71.1-42.74.07-72.04-35.6-71.12-71.1Z"/>
      <path class="cls-1" d="m.39,1931.76c-1.05-33.66,26.13-71.07,71.08-71.16,44.73-.09,71.91,37.38,71.44,72.46-.49,35.85-29.78,70.89-72.02,70.46-42.01-.42-71.69-35.58-70.49-71.77Z"/>
      <path class="cls-1" d="m447.93,3656.97c.59,40.19-33.97,71.22-71.2,71.2-38.14-.02-71.22-31.64-71.49-71.06-.25-36.08,28.48-72.17,72.08-71.78,44.72.4,71.89,38.11,70.61,71.63Z"/>
      <path class="cls-1" d="m145.7,1233.16c1.08,39.93-33.03,71.52-70.43,71.89-39.01.39-72.36-32.17-72.25-71.71.1-36.3,30.03-71.09,71.36-71.14,41.54-.04,72.17,34.86,71.32,70.96Z"/>
      <path class="cls-1" d="m142.67,2796.9c1.19,35.58-28.55,71.16-70.79,71.44-41.66.28-72.22-34.71-71.87-72.03.35-38.68,33.31-71,71.73-70.82,38.7.18,71.85,32.81,70.93,71.41Z"/>
      <path class="cls-1" d="m142.68,2451.34c.74,39.09-33,71.09-71.12,71.15-37.94.07-71.16-31.83-71.4-71.05-.23-36.65,29.62-72.2,72.01-71.8,42.2.41,71.76,36.15,70.51,71.69Z"/>
      <path class="cls-1" d="m142.68,2105.76c.58,38.15-32.05,70.93-71.46,70.85-38.76-.08-70.99-32.78-71.07-71.44-.07-33.87,26.35-71.27,70.94-71.47,45.32-.2,73,37.71,71.59,72.06Z"/>
      <path class="cls-1" d="m142.68,2277.7c1.01,39.08-32.23,71.37-70.51,71.78-38.31.41-72.26-31.74-72.17-71.78.08-35.09,28.67-71,71.45-70.93,44.02.07,72.27,36.94,71.23,70.93Z"/>
      <path class="cls-1" d="m1391.9,264.56c.81,37.17-31.09,70.94-71.4,70.86-39.51-.08-71.18-33.09-71.27-71.2-.09-39.2,32.92-72.08,72.32-71.64,38.03.43,71.5,32.67,70.35,71.98Z"/>
      <path class="cls-1" d="m142.68,2623.95c1.06,36.57-29.67,71.3-70.67,71.52-41.39.22-72.09-34.48-71.84-72,.25-38.08,32.53-70.91,71.61-70.83,38.68.08,71.85,32.82,70.91,71.31Z"/>
    </g>
  </g>
</svg>