<?xml version="1.0" encoding="UTF-8"?>
<svg id="Layer_2" data-name="Layer 2" xmlns="http://www.w3.org/2000/svg" viewBox="0 0 483.32 202.91">
  <defs>
    <style>
      .cls-1 {
        fill: #16becf;
      }

      .cls-1, .cls-2 {
        stroke-width: 0px;
      }

      .cls-2 {
        fill: #fff;
      }
    </style>
  </defs>
  <g id="Layer_1-2" data-name="Layer 1">
    <g>
      <path class="cls-2" d="m265.1,7.12c2.52,0,4.79.29,6.75.85,1.97.57,3.63,1.4,4.93,2.5,1.02.85,1.79,1.84,2.3,2.96.51,1.11.77,2.35.77,3.7v14.15c0,1.35-.26,2.59-.77,3.7-.52,1.11-1.29,2.1-2.3,2.95-1.3,1.09-2.96,1.94-4.93,2.5-1.96.57-4.23.86-6.75.86h-19.25c-2.52,0-4.79-.29-6.76-.86-1.96-.56-3.62-1.4-4.93-2.5-1.02-.85-1.78-1.83-2.3-2.95-.51-1.11-.77-2.35-.77-3.7v-14.15c0-1.35.26-2.59.77-3.7.52-1.11,1.28-2.1,2.3-2.96,1.31-1.09,2.97-1.93,4.93-2.5,1.97-.56,4.24-.85,6.76-.85h19.25Zm0-7.12h-19.25c-7.1,0-12.58,1.92-16.27,5.02-3.69,3.1-5.61,7.38-5.61,12.11v14.15c0,4.72,1.92,9.01,5.61,12.11,3.69,3.1,9.17,5.01,16.27,5.01h19.25c7.1,0,12.57-1.91,16.26-5.01,3.7-3.1,5.61-7.38,5.61-12.11v-14.15c0-4.73-1.91-9.01-5.61-12.11-3.69-3.1-9.16-5.02-16.26-5.02m-55.65,42.63c-.43-.44-.94-.78-1.5-1-.56-.23-1.16-.35-1.78-.35h-35.38c-2.52,0-4.79-.29-6.75-.86-1.97-.56-3.63-1.4-4.94-2.5-1.02-.85-1.78-1.83-2.3-2.95-.51-1.11-.77-2.35-.77-3.7V8.13c0-.28.12-.53.3-.72.17-.18.42-.29.71-.29h33c2.52,0,4.79.29,6.75.85,1.97.57,3.63,1.4,4.94,2.5,1.02.85,1.78,1.84,2.3,2.96.51,1.11.77,2.35.77,3.7v13.3c0,.83.34,1.59.89,2.13.54.55,1.3.88,2.14.88h1.08c.83,0,1.58-.33,2.14-.88.54-.54.88-1.3.88-2.13v-13.3c0-4.73-1.91-9.01-5.6-12.11-3.7-3.1-9.17-5.02-16.27-5.02h-38.11c-.83,0-1.58.34-2.13.88-.55.55-.88,1.3-.88,2.14v28.25c0,4.72,1.91,9.01,5.6,12.11,3.7,3.1,9.17,5.01,16.27,5.01h33.29c.34,0,.68.07.98.2.31.13.59.31.83.55l3.65,3.64,3.64,3.65c.59.59,1.36.89,2.14.89s1.54-.29,2.14-.89l.37-.37.38-.37c.59-.6.89-1.39.89-2.16s-.3-1.56-.89-2.16l-4.38-4.38-4.37-4.37ZM315.84.05c-6.5,0-11.16,1.47-14.2,3.84-3.04,2.37-4.46,5.65-4.46,9.27v1.51c0,3.62,1.42,6.9,4.46,9.28,3.04,2.37,7.71,3.83,14.2,3.83h20.19c2.2,0,4.17.21,5.83.61,1.67.39,3.02.98,3.98,1.73.6.47,1.03.98,1.31,1.67.27.69.41,1.57.41,2.75s-.13,2.05-.41,2.74c-.28.69-.71,1.21-1.31,1.67-.96.75-2.31,1.33-3.98,1.73-1.66.4-3.63.61-5.83.61h-23.88c-1.36,0-2.7-.27-3.94-.76-1.25-.5-2.39-1.23-3.37-2.16l-.81-.77-.8-.77c-.61-.58-1.4-.86-2.19-.83-.78.02-1.55.34-2.14.95l-.34.37-.35.37c-.58.61-.85,1.4-.84,2.17.03.78.34,1.55.95,2.13l.8.77.81.77c1.64,1.56,3.56,2.78,5.63,3.61,2.07.83,4.31,1.26,6.58,1.26h23.88c6.49,0,11.16-1.47,14.2-3.84,3.04-2.37,4.46-5.65,4.46-9.27v-1.51c0-3.62-1.42-6.9-4.46-9.27-3.04-2.38-7.71-3.84-14.2-3.84h-20.19c-2.2,0-4.17-.21-5.84-.6-1.66-.4-3.02-.98-3.98-1.74-.59-.46-1.03-.98-1.3-1.67-.28-.69-.42-1.56-.42-2.74s.13-2.05.42-2.75c.28-.69.71-1.2,1.3-1.67.97-.75,2.32-1.34,3.98-1.73,1.67-.39,3.64-.6,5.84-.6l10.97-.02,10.96-.03c1.32,0,2.61.24,3.81.7,1.21.47,2.33,1.15,3.31,2.02l1.02.92,1.02.91c.63.56,1.42.82,2.19.78.79-.04,1.55-.38,2.11-1l.34-.37.34-.39c.56-.63.82-1.42.78-2.2-.04-.78-.38-1.54-1-2.1l-1.02-.92-1.02-.91c-1.63-1.46-3.5-2.6-5.51-3.37-2.01-.77-4.17-1.18-6.36-1.18l-10.96.03-10.97.02Zm-187.21,3.01v42.28c0,.84.34,1.6.89,2.15.55.55,1.32.89,2.16.89h1.01c.84,0,1.6-.34,2.16-.89.55-.55.89-1.31.89-2.15V3.06c0-.84-.34-1.6-.89-2.16-.56-.55-1.32-.89-2.16-.89h-1.01c-.84,0-1.61.34-2.16.89-.55.56-.89,1.32-.89,2.16"/>
      <path class="cls-1" d="m464.07,114.48c0-5.28,4.06-8.94,9.62-8.94s9.62,3.66,9.62,8.94-4.07,8.81-9.62,8.81-9.62-3.66-9.62-8.81m1.76,20.47h15.59v66.55h-15.59v-66.55Z"/>
      <path class="cls-2" d="m314.58,201.5h-7.66v-80.17l-34.38,80.17h-5l-34.54-80.17v80.17h-7.66v-95.96h8.75l36.1,84.24,36.1-84.24h8.28v95.96Zm-120.08-37.82c0,26.41-16.25,39.23-36.88,39.23s-36.72-12.82-36.72-39.23v-58.14h7.98v57.04c0,22.51,12.18,32.98,28.75,32.98s28.91-10.47,28.91-32.98v-57.04h7.97v58.14Zm-93.82,37.82h-60.01v-95.96h7.97v88.61h52.04v7.34Zm-92.72,0H0v-95.96h7.97v95.96Zm353.85-39l18.29-46.64,18.39,46.64h-36.68Zm22.05-56.96h-7.34l-37.98,95.96h8.02l12.43-31.77h42.36l12.52,31.77h7.97l-37.98-95.96Z"/>
    </g>
  </g>
</svg>