<?xml version="1.0" encoding="utf-8"?>
<!-- Generator: Adobe Illustrator 27.9.0, SVG Export Plug-In . SVG Version: 6.00 Build 0)  -->
<svg version="1.1" id="Layer_2_00000077322626621857219150000011367828485421062289_"
	 xmlns="http://www.w3.org/2000/svg" xmlns:xlink="http://www.w3.org/1999/xlink" x="0px" y="0px" viewBox="0 0 483.3 202.9"
	 style="enable-background:new 0 0 483.3 202.9;" xml:space="preserve">
<style type="text/css">
	.st0{fill:#34303D;}
	.st1{fill:#16BECF;}
</style>
<g id="Layer_1-2">
	<g>
		<path class="st0" d="M265.1,7.1c2.5,0,4.8,0.3,6.8,0.8c2,0.6,3.6,1.4,4.9,2.5c1,0.9,1.8,1.8,2.3,3c0.5,1.1,0.8,2.3,0.8,3.7v14.1
			c0,1.3-0.3,2.6-0.8,3.7c-0.5,1.1-1.3,2.1-2.3,3c-1.3,1.1-3,1.9-4.9,2.5c-2,0.6-4.2,0.9-6.8,0.9h-19.2c-2.5,0-4.8-0.3-6.8-0.9
			c-2-0.6-3.6-1.4-4.9-2.5c-1-0.8-1.8-1.8-2.3-3c-0.5-1.1-0.8-2.3-0.8-3.7V17.1c0-1.4,0.3-2.6,0.8-3.7c0.5-1.1,1.3-2.1,2.3-3
			c1.3-1.1,3-1.9,4.9-2.5c2-0.6,4.2-0.8,6.8-0.8C245.9,7.1,265.1,7.1,265.1,7.1z M265.1,0h-19.2c-7.1,0-12.6,1.9-16.3,5
			s-5.6,7.4-5.6,12.1v14.1c0,4.7,1.9,9,5.6,12.1s9.2,5,16.3,5h19.2c7.1,0,12.6-1.9,16.3-5c3.7-3.1,5.6-7.4,5.6-12.1V17.1
			c0-4.7-1.9-9-5.6-12.1C277.7,1.9,272.2,0,265.1,0 M209.5,42.6c-0.4-0.4-0.9-0.8-1.5-1c-0.6-0.2-1.2-0.3-1.8-0.3h-35.4
			c-2.5,0-4.8-0.3-6.8-0.9c-2-0.6-3.6-1.4-4.9-2.5c-1-0.8-1.8-1.8-2.3-3c-0.5-1.1-0.8-2.3-0.8-3.7V8.1c0-0.3,0.1-0.5,0.3-0.7
			c0.2-0.2,0.4-0.3,0.7-0.3h33c2.5,0,4.8,0.3,6.8,0.8c2,0.6,3.6,1.4,4.9,2.5c1,0.9,1.8,1.8,2.3,3c0.5,1.1,0.8,2.3,0.8,3.7v13.3
			c0,0.8,0.3,1.6,0.9,2.1c0.5,0.5,1.3,0.9,2.1,0.9h1.1c0.8,0,1.6-0.3,2.1-0.9c0.5-0.5,0.9-1.3,0.9-2.1V17.1c0-4.7-1.9-9-5.6-12.1
			c-3.7-3.1-9.2-5-16.3-5H152c-0.8,0-1.6,0.3-2.1,0.9c-0.6,0.6-0.9,1.3-0.9,2.1v28.2c0,4.7,1.9,9,5.6,12.1c3.7,3.1,9.2,5,16.3,5
			h33.3c0.3,0,0.7,0.1,1,0.2c0.3,0.1,0.6,0.3,0.8,0.5l3.6,3.6l3.6,3.7c0.6,0.6,1.4,0.9,2.1,0.9s1.5-0.3,2.1-0.9l0.4-0.4l0.4-0.4
			c0.6-0.6,0.9-1.4,0.9-2.2s-0.3-1.6-0.9-2.2l-4.4-4.4L209.5,42.6L209.5,42.6z M315.8,0.1c-6.5,0-11.2,1.5-14.2,3.8
			s-4.5,5.7-4.5,9.3v1.5c0,3.6,1.4,6.9,4.5,9.3c3,2.4,7.7,3.8,14.2,3.8H336c2.2,0,4.2,0.2,5.8,0.6c1.7,0.4,3,1,4,1.7
			c0.6,0.5,1,1,1.3,1.7c0.3,0.7,0.4,1.6,0.4,2.8s-0.1,2-0.4,2.7c-0.3,0.7-0.7,1.2-1.3,1.7c-1,0.8-2.3,1.3-4,1.7
			c-1.7,0.4-3.6,0.6-5.8,0.6h-23.9c-1.4,0-2.7-0.3-3.9-0.8c-1.2-0.5-2.4-1.2-3.4-2.2l-0.8-0.8l-0.8-0.8c-0.6-0.6-1.4-0.9-2.2-0.8
			c-0.8,0-1.5,0.3-2.1,1l-0.3,0.4l-0.4,0.4c-0.6,0.6-0.9,1.4-0.8,2.2c0,0.8,0.3,1.5,1,2.1l0.8,0.8l0.8,0.8c1.6,1.6,3.6,2.8,5.6,3.6
			s4.3,1.3,6.6,1.3H336c6.5,0,11.2-1.5,14.2-3.8s4.5-5.7,4.5-9.3v-1.5c0-3.6-1.4-6.9-4.5-9.3c-3-2.4-7.7-3.8-14.2-3.8h-20.2
			c-2.2,0-4.2-0.2-5.8-0.6c-1.7-0.4-3-1-4-1.7c-0.6-0.5-1-1-1.3-1.7c-0.3-0.7-0.4-1.6-0.4-2.7s0.1-2.1,0.4-2.8
			c0.3-0.7,0.7-1.2,1.3-1.7c1-0.8,2.3-1.3,4-1.7c1.7-0.4,3.6-0.6,5.8-0.6l11,0l11,0c1.3,0,2.6,0.2,3.8,0.7c1.2,0.5,2.3,1.1,3.3,2
			l1,0.9l1,0.9c0.6,0.6,1.4,0.8,2.2,0.8c0.8,0,1.5-0.4,2.1-1l0.3-0.4l0.3-0.4c0.6-0.6,0.8-1.4,0.8-2.2s-0.4-1.5-1-2.1l-1-0.9l-1-0.9
			c-1.6-1.5-3.5-2.6-5.5-3.4S340,0,337.8,0l-11,0L315.8,0.1L315.8,0.1z M128.6,3.1v42.3c0,0.8,0.3,1.6,0.9,2.2
			c0.6,0.5,1.3,0.9,2.2,0.9h1c0.8,0,1.6-0.3,2.2-0.9c0.6-0.5,0.9-1.3,0.9-2.2V3.1c0-0.8-0.3-1.6-0.9-2.2c-0.6-0.6-1.3-0.9-2.2-0.9
			h-1c-0.8,0-1.6,0.3-2.2,0.9C129,1.5,128.6,2.2,128.6,3.1"/>
		<path class="st1" d="M464.1,114.5c0-5.3,4.1-8.9,9.6-8.9s9.6,3.7,9.6,8.9s-4.1,8.8-9.6,8.8S464.1,119.6,464.1,114.5 M465.8,134.9
			h15.6v66.6h-15.6V134.9z"/>
		<path class="st0" d="M314.6,201.5h-7.7v-80.2l-34.4,80.2h-5L233,121.3v80.2h-7.7v-96h8.8l36.1,84.2l36.1-84.2h8.3L314.6,201.5
			L314.6,201.5z M194.5,163.7c0,26.4-16.2,39.2-36.9,39.2s-36.7-12.8-36.7-39.2v-58.1h8v57c0,22.5,12.2,33,28.8,33
			s28.9-10.5,28.9-33v-57h8L194.5,163.7L194.5,163.7z M100.7,201.5h-60v-96h8v88.6h52L100.7,201.5L100.7,201.5z M8,201.5H0v-96h8
			L8,201.5L8,201.5z M361.8,162.5l18.3-46.6l18.4,46.6H361.8z M383.9,105.5h-7.3l-38,96h8l12.4-31.8h42.4l12.5,31.8h8L383.9,105.5
			L383.9,105.5z"/>
	</g>
</g>
</svg>
