<?xml version="1.0" encoding="UTF-8"?>
<svg id="Layer_2" data-name="Layer 2" xmlns="http://www.w3.org/2000/svg" viewBox="0 0 78.1 73.38">
  <defs>
    <style>
      .cls-1 {
        fill: #192546;
      }

      .cls-2 {
        fill: #29b8ce;
      }
    </style>
  </defs>
  <g id="artwork">
    <g>
      <path class="cls-1" d="M6.97,40.25c-.48,0-.97-.17-1.36-.5l-4.88-4.16c-.88-.75-.98-2.07-.23-2.95.75-.88,2.07-.98,2.95-.23l3.52,3,4.02-3.43c.88-.75,2.2-.65,2.95.23s.65,2.2-.23,2.95l-5.38,4.59c-.39.33-.88.5-1.36.5Z"/>
      <path class="cls-1" d="M41.41,73.38c-12.41,0-23.88-6.2-30.7-16.59-.59-.89-.34-2.09.56-2.68.9-.59,2.09-.34,2.68.56,6.1,9.29,16.36,14.84,27.46,14.84,18.1,0,32.82-14.72,32.82-32.82S59.5,3.87,41.41,3.87,8.59,18.59,8.59,36.69c0,1.07-.87,1.93-1.93,1.93s-1.93-.87-1.93-1.93C4.72,16.46,21.18,0,41.41,0s36.69,16.46,36.69,36.69-16.46,36.69-36.69,36.69Z"/>
      <polygon class="cls-2" points="32.38 51.58 58.17 36.69 32.38 21.8 32.38 51.58"/>
      <path class="cls-1" d="M32.38,53.67c-.36,0-.72-.09-1.05-.28-.65-.37-1.05-1.07-1.05-1.81v-29.78c0-.75.4-1.44,1.05-1.81.65-.37,1.45-.37,2.09,0l25.79,14.89c.65.37,1.05,1.07,1.05,1.81s-.4,1.44-1.05,1.81l-25.79,14.89c-.32.19-.69.28-1.05.28ZM34.48,25.43v22.53l19.51-11.26-19.51-11.26Z"/>
    </g>
  </g>
</svg>