<?xml version="1.0" encoding="UTF-8"?>
<svg width="24px" height="24px" viewBox="0 0 24 24" version="1.1" xmlns="http://www.w3.org/2000/svg">
    <g stroke="none" stroke-width="1" fill="none" fill-rule="evenodd">
        <path d="M16.5,2 L16.5,3 L7.5,3 C6.12,3 5,4.12 5,5.5 L5,18.5 C5,19.88 6.12,21 7.5,21 L16.5,21 C17.88,21 19,19.88 19,18.5 L19,5.5 C19,4.12 17.88,3 16.5,3 L16.5,2 Z M7.5,4 L16.5,4 C17.33,4 18,4.67 18,5.5 L18,18.5 C18,19.33 17.33,20 16.5,20 L7.5,20 C6.67,20 6,19.33 6,18.5 L6,5.5 C6,4.67 6.67,4 7.5,4 Z" fill="#FFFFFF" fill-rule="nonzero"/>
        <path d="M12,17 C12.5522847,17 13,17.4477153 13,18 C13,18.5522847 12.5522847,19 12,19 C11.4477153,19 11,18.5522847 11,18 C11,17.4477153 11.4477153,17 12,17 Z" fill="#FFFFFF"/>
    </g>
</svg> 